Patient4_TMGait_0pt7_01_right_27_EMG.mot
version=1
nRows=33
nColumns=33
inDegrees=no
endheader
time	1LAddLong	2LGlutMax	3LGlutMed	4LIliopsoas	5LSemiMemb	6LBicFemLong	7LRecFem	8LVastMed	9LVastLat	10LGasMed	11LTibAnt	12lTibPost	13LPeroneusLong	14LSol	15LExtDigLong	16LFlexDigLong	17RAddLong	18RGlutMax	19RGlutMed	20RIliopsoas	21RSemiMemb	22RBicFemLong	23RRecFem	24RVastMed	25RVastLat	26RGasMed	27RTibAnt	28RTibPost	29RPeroneusLong	30RSol	31RExtDigLong	32RFlexDigLong
31.355	0.042877	0.43091	-0.121	0.003204	0.08667	-0.21912	-0.059204	-0.014343	-0.1445	-0.00885	0.001831	-0.017395	0.14603	0.037842	-0.034485	0.003815	-0.061646	-0.28153	1.1342	-0.012054	0.079346	-0.09613	-0.1973	0.012512	0.051727	-0.023804	-0.29968	-0.010071	-0.13473	0.009766	-0.001526	-0.019989
31.356	0.052643	0.38452	-0.17868	0.000916	0.11231	0.12558	-0.15671	0.003967	-0.15549	-0.018463	0.019226	-0.018921	0.15045	0.003052	-0.050659	0.023956	-0.033875	-0.27451	0.62317	-0.10147	0.081635	-0.10407	-0.1976	-0.025635	0.048828	-0.019379	0.18234	-0.002441	0.066681	-0.062866	-0.002441	-0.009918
31.357	0.044403	0.30579	-0.18997	0.00824	0.10895	0.19287	-0.22064	-0.001373	-0.11261	0.004425	-0.002899	-0.01236	0.10544	0.030975	-0.035706	0.027008	-0.016174	-0.20889	0.2945	-0.11459	0.10407	-0.10284	-0.14725	-0.016632	0.058746	-0.000305	0.33554	-0.002441	0.33173	-0.16525	0	-0.013733
31.358	0.030365	0.3096	-0.18784	-0.000305	0.11124	0.096741	-0.16235	0.024414	-0.029449	0.024872	0.024872	-0.013275	0.09552	0.060425	-0.012817	0.006866	0.00412	-0.25345	-0.25574	-0.087433	0.12604	-0.11246	-0.15854	-0.005035	0.061493	-0.00412	0.26611	-0.003052	0.17883	-0.098267	-0.002899	-0.008545
31.359	0.016022	0.31357	-0.16968	-0.007782	0.14099	0.12924	-0.025635	-0.040283	-0.026245	0.008392	-0.012665	-0.023956	0.03418	0.097809	-0.014801	0.007629	0.011749	-0.21973	0.17654	0.019226	0.16449	-0.084381	-0.10407	-0.023956	0.056305	-0.012817	0.13458	-0.00473	-0.22522	-0.023041	0.000305	-0.005188
31.36	-0.010681	0.30655	-0.12207	-0.015411	0.13763	0.34759	0.081024	-0.016937	-0.063934	-0.020599	0.019989	-0.015259	0.12161	0.12955	-0.00473	-0.002594	0.014191	-0.22171	-0.13382	0.05661	0.1593	-0.11719	-0.1326	-0.052338	0.061951	-0.009613	-0.00061	-0.00412	-0.60272	-0.014343	-0.003052	-0.014496
31.361	-0.037689	0.24124	-0.11185	-0.005188	0.09201	0.42343	0.13931	0.007782	0.072327	0.025024	0.036469	-0.024109	0.45075	0.082092	0.016022	0.007172	0.011139	-0.19073	-0.13947	-0.077209	0.15121	-0.11459	-0.12177	-0.043488	0.067749	-0.001373	-0.048828	-0.003662	0.37369	-0.13519	0.00946	-0.015717
31.362	-0.057983	0.31235	-0.098267	0.005493	0.024414	0.30746	0.14145	0.010529	0.24048	0.033264	0.02121	-0.010223	0.71564	0.074768	0.042725	0.012665	0.001678	-0.11627	0.33005	-0.159	0.14008	-0.12741	-0.15717	-0.045624	0.063782	0.005341	-0.033875	-0.006104	0.62454	-0.2327	0.00351	-0.018921
31.363	-0.065765	0.2655	-0.099182	0.006561	-0.072784	0.039368	0.28046	0.017395	0.20706	0.052032	0.010529	-0.019989	0.62073	0.038147	0.065613	0.005493	0.025635	-0.10071	0.31769	-0.009766	0.12405	-0.090332	-0.11429	-0.069122	0.072784	0.005493	0.11124	-0.003357	-1.3	-0.19287	-0.000763	-0.009918
31.364	-0.075836	0.20462	-0.083313	-0.003967	-0.14069	-0.12909	0.31326	0.023346	0.15717	0.024414	0.003967	-0.014648	0.15396	0.097809	0.092926	0.001831	0.014191	-0.11398	0.18234	0.10193	0.10284	-0.074005	-0.11566	-0.066833	0.081787	0.005188	0.19669	-0.010986	-2.4445	0.010529	-0.002747	-0.009308
31.365	-0.040741	0.24826	-0.033112	0.000153	-0.16586	-0.27359	0.21545	0.003967	0.11078	-0.005188	-0.019379	-0.023956	-0.14206	0.1387	0.019836	0.013733	-0.00824	-0.13825	-0.35477	0.075378	0.089569	-0.089264	-0.17166	-0.060272	0.068054	-0.002594	0.1651	-0.002136	-1.8733	0.13962	-0.002747	-0.006104
31.366	-0.028076	0.26993	-0.10742	0.002441	-0.20309	-0.1712	0.078278	-0.010986	0.043182	-0.001068	-0.028076	-0.020447	0.26291	0.019684	-0.15045	0.016632	0.005188	-0.068512	-0.39261	0.17105	0.082245	-0.10376	-0.17777	-0.072937	0.091553	0.001526	0.068817	-0.005188	-1.3835	-0.014343	-0.000305	0.000153
31.367	-0.013275	0.31677	-0.12192	0.009613	0.026398	-0.19089	0.11719	-0.028992	0.015717	0.012817	-0.004578	-0.008392	0.059204	-0.086823	-0.15274	0.017242	0.003052	-0.020447	0.24902	0.10468	0.076294	-0.12756	-0.13382	-0.08606	0.070648	-0.007324	-0.017548	-0.002594	2.236	-0.11169	0	-0.000458
31.368	-0.005493	0.27954	-0.10178	0.005951	0.15137	-0.11612	0.1004	-0.051117	-0.025482	0.0383	-0.010529	-0.02243	-0.46127	-0.051575	-0.097198	0.018921	0.030975	-0.099182	0.30518	0.10239	0.049133	-0.12756	-0.084686	-0.12314	0.075226	-0.013428	0.000458	-0.002136	2.7805	-0.076447	0.000305	-0.009918
31.369	0.028076	0.28488	-0.030975	0.007172	0.12482	-0.078583	-0.05722	-0.080109	0.098724	0.037689	0.011902	-0.014801	-0.52048	-0.031128	-0.050354	0.00824	-0.011597	-0.086212	0.10437	0.18341	0.033112	-0.13138	-0.074158	-0.17578	0.062561	-0.01236	-0.056	0.002899	1.7696	-0.20493	-0.002136	-0.00061
31.37	0.042572	0.26459	-0.041962	0.00885	0.040894	-0.035858	-0.19394	-0.079651	0.18478	0.052032	0.010071	-0.01358	-0.020599	-0.011139	0.012512	0.013428	-0.056305	-0.080109	0.12512	0.19653	0.028992	-0.17593	-0.081482	-0.14755	0.063171	0.005035	-0.059052	0.00885	0.18402	-0.2623	-0.002136	-0.008545
31.371	0.030365	0.23148	-0.099945	0.012512	0.01297	-0.046234	-0.12817	-0.062714	0.22125	0.027313	-0.000153	-0.015564	0.12146	-0.056915	0.005341	0.00885	-0.039673	-0.060577	0.11627	0.13672	0.027618	-0.15778	-0.085297	-0.13199	0.087738	0.002289	0.046387	0.011292	-0.27222	-0.24887	-0.002136	-0.01358
31.372	0.019836	0.18646	-0.097656	0.007782	-0.046997	-0.040283	-0.074005	-0.018311	0.24979	0.022278	-0.006561	-0.013885	0.26199	-0.001678	-0.000458	0.007782	-0.001068	-0.035095	0.2652	0.092926	0.037842	-0.14114	-0.121	-0.11398	0.094757	0.005188	0.050964	0.003967	0.48447	-0.37064	0	-0.015869
31.373	0.001068	0.112	-0.02655	0.013275	-0.09903	0.031433	-0.049286	-0.002289	0.13199	0.047302	0.014343	-0.015411	0.068207	0.010376	-0.040894	0.010681	0.030212	-0.03479	0.3566	-0.000305	0.018921	-0.095978	-0.15915	-0.070343	0.09903	0.009766	-0.0383	-0.091553	0.71457	-0.2533	-0.000305	-0.013428
31.374	-0.004272	0.050201	0.045013	0.00412	0.009308	-0.023651	-0.046234	0.008392	-0.021667	0.032501	0.010071	-0.005646	-0.10361	-0.009308	-0.050659	0.014343	0.023346	-0.025024	0.29617	-0.10223	0.027008	-0.056152	-0.16052	-0.086517	0.093994	0.006714	-0.063782	-0.035858	0.25299	0.31311	-0.001221	-0.023193
31.375	0.000458	0.010071	0.091553	-0.005798	0.054321	-0.049744	0.016022	0.025177	-0.021057	-0.010986	0.006866	-0.004272	0.001221	-0.019073	-0.010834	0.009613	0.033722	-0.020752	-0.23544	-0.17487	0.057983	-0.013123	-0.17136	-0.062408	0.11765	0.00412	-0.056763	0.038605	0.45425	0.5275	0.003204	-0.014191
31.376	0.018311	0.039368	0.03418	0.002747	-0.013885	-0.091248	-0.015717	0.014801	0.054016	-0.088196	0.003357	-0.012817	0.072174	-0.002136	-0.005798	0.010834	0.010376	-0.047302	-0.085297	-0.22583	0.063019	0.15656	-0.21439	-0.054169	0.13321	0.00061	0.023956	0.011749	-0.76691	0.34332	-0.001526	-0.022125
31.377	0.028534	-0.05661	0.06073	0.007019	0.067749	-0.18417	-0.13229	0.010681	0.067139	-0.049133	-0.007782	-0.005951	0.013123	-0.006104	-0.009155	0.019531	-0.013275	-0.015869	0.16007	-0.09079	0.072021	0.18662	-0.26093	0.001068	0.13229	-0.004272	0.041656	0.002594	-1.0277	0.10086	0.000458	-0.012817
31.378	0.041046	-0.16617	0.050049	-0.003662	0.012817	-0.17502	-0.18677	0.023956	0.065918	-0.008545	0.02594	0.001373	-0.030365	-0.005646	-0.000763	0.011292	-0.016937	-0.027008	-0.23239	0.088806	0.086365	0.045929	-0.21881	0.018311	0.13168	0.006256	-0.002136	0.000763	-0.21957	-0.063477	-0.00061	-0.019226
31.379	0.038757	-0.14023	0.017242	-0.011597	0.007935	-0.18784	-0.085754	0.012665	0.12619	0.016632	0.030212	0.006714	-0.013733	0.0177	0.010223	0.020447	-0.028381	0.027924	-0.84213	0.28442	0.11597	-0.041046	-0.2504	0.064392	0.13687	0.039368	0.002594	0.00412	0.010071	0.041962	-0.004425	-0.011444
31.38	0.033875	-0.14313	0.029907	0.000305	-0.08728	-0.02243	0.025177	0.000916	0.15595	0.024567	0.015411	0.007782	0.022736	0.036926	0.002594	0.042419	-0.051422	0.056	-0.41153	0.20691	0.11505	-0.089722	-0.28	0.069275	0.12985	0.028229	0.014496	0.007019	-0.008087	0.17792	0.001221	-0.014343
31.381	0.041504	-0.21164	0.08194	0.001373	-0.18524	0.064392	0.077972	0.00412	0.065308	0.026703	0.003052	0.014648	0.02533	0.045929	-0.007477	0.033722	-0.053101	0.005798	-0.22308	0.056915	0.1268	-0.14999	-0.22018	0.096588	0.099792	0.024567	0.003052	0.002136	0.24979	0.22934	0.001221	-0.009003
31.382	0.046082	-0.21683	0.067902	-0.008698	-0.06897	0.078735	0.049744	-0.00412	-0.005341	0.02533	-0.01297	0.016022	0.024872	0.029755	-0.005798	0.042267	-0.029297	0.066071	0.47531	0.013733	0.15579	-0.18356	-0.24002	0.041351	0.086823	-0.00061	0.012054	-0.044098	0.26276	0.17944	-0.006561	-0.010834
31.383	0.058746	-0.27832	0.00946	-0.01709	0.067596	0.15411	0.039368	-0.007782	-0.016632	0.002594	-0.007477	0.018463	0.0737	0.017395	-0.024109	0.044098	-0.033569	0.077209	0.24216	0.058746	0.14374	-0.13733	-0.22156	0.018768	0.067444	-0.020142	0.031128	-0.29297	0.17929	0.099945	-0.001068	-0.018005
31.384	0.049591	-0.44235	-0.012054	0.005798	0.13046	0.28839	-0.040131	-0.002747	-0.011902	-0.000458	0.006256	0.014954	0.054169	0.054169	-0.042114	0.049133	-0.045624	0.003204	-0.31464	0.10162	0.10101	-0.083618	-0.28763	0.027771	0.046844	-0.023346	0.029602	-0.00412	0.25894	0.034027	-0.000916	-0.008698
31.385	0.042572	-0.6279	-0.066681	0.004578	0.14923	0.25284	-0.037079	0.039368	0.039825	0.004883	0.014343	0.028381	0.070343	0.059662	-0.023651	0.032196	-0.058899	0.073547	-0.32028	0.049591	0.082855	-0.048676	-0.31082	0.037537	0.025177	-0.024567	0.033417	0.3273	0.24567	-0.056305	0	-0.013733
31.386	0.044098	-0.77972	-0.07843	0.014038	0.12604	0.15442	0.005493	0.048218	0.16007	0.028687	0.026093	0.023804	0.1329	-0.020905	-0.048523	-1.8459	-0.050507	0.03006	-0.38666	-0.112	0.080414	-0.02594	-0.24979	0.003052	0.01709	-0.030975	0.050201	0.087891	0.14725	-0.0383	0.004578	-0.011139
31.387	0.028229	-0.85968	-0.05661	0.014343	0.092926	0.099792	0.033112	0.021973	0.18524	0.033569	-0.028229	0.024567	0.17471	-0.089417	-0.065918	0.42923	-0.031738	0.056458	0.44449	-0.2536	0.071411	-0.093842	-0.16403	-0.027924	0.009155	-0.026855	0.063324	0.015411	0.18143	-0.020905	0	-0.012512
